<?xml version="1.0" standalone="no"?>
<!DOCTYPE svg PUBLIC "-//W3C//DTD SVG 20010904//EN"
 "http://www.w3.org/TR/2001/REC-SVG-20010904/DTD/svg10.dtd">
<svg version="1.0" xmlns="http://www.w3.org/2000/svg"
 width="240.000000pt" height="240.000000pt" viewBox="0 0 240.000000 240.000000"
 preserveAspectRatio="xMidYMid meet">
<metadata>
Created by potrace 1.11, written by Peter Selinger 2001-2013
</metadata>
<g transform="translate(0.000000,240.000000) scale(0.100000,-0.100000)"
fill="#000000" stroke="none">
<path d="M925 2313 c-12 -11 -14 -24 -9 -47 9 -40 13 -127 6 -144 -3 -9 -14
-11 -36 -6 -37 9 -63 12 -97 13 -22 1 -30 10 -50 58 -27 65 -64 107 -86 99 -8
-3 -17 -6 -19 -6 -12 0 0 -47 25 -96 l29 -57 -65 -23 c-35 -12 -75 -30 -89
-39 -24 -15 -26 -15 -58 18 -19 19 -48 56 -66 82 -26 37 -37 46 -57 43 -52 -6
-37 -64 38 -150 27 -31 49 -59 49 -62 0 -4 -13 -24 -29 -47 -17 -22 -32 -46
-34 -52 -3 -9 -22 -6 -68 10 -125 42 -193 43 -187 0 3 -24 35 -43 86 -52 17
-3 56 -14 85 -25 l52 -20 0 -79 0 -79 -70 -6 c-75 -7 -146 -25 -156 -39 -3 -5
-10 -8 -15 -6 -13 3 -33 -41 -27 -58 5 -12 16 -14 46 -9 23 4 46 11 52 16 5 4
15 9 20 9 6 1 24 3 40 6 61 11 126 12 133 1 4 -6 17 -32 29 -58 l21 -46 -36
-37 c-21 -21 -55 -49 -77 -64 -50 -33 -64 -50 -57 -73 10 -40 99 -9 176 63
l43 39 31 -43 c16 -23 39 -52 51 -64 20 -21 20 -22 2 -45 -56 -72 -93 -186
-66 -208 28 -23 48 -7 71 58 13 34 32 76 44 92 l21 30 22 -21 c12 -12 47 -40
77 -63 85 -63 82 -57 36 -107 -22 -24 -57 -57 -76 -73 -40 -33 -46 -52 -19
-66 28 -15 73 11 142 83 l57 60 38 -27 c20 -14 53 -40 72 -56 31 -27 33 -32
19 -43 -115 -90 -145 -127 -129 -157 15 -29 43 -25 81 11 19 18 54 48 77 67
l44 36 19 -25 c39 -48 89 -124 89 -134 0 -12 -88 -106 -133 -142 -31 -26 -33
-35 -12 -53 24 -20 56 -5 125 59 l65 59 18 -36 c9 -19 17 -40 17 -46 0 -6 18
-38 39 -72 35 -55 37 -62 24 -80 -21 -28 -62 -113 -72 -151 -7 -25 -6 -37 6
-48 30 -31 52 -16 73 50 11 34 44 101 55 113 2 2 23 -9 47 -25 52 -34 115 -64
143 -67 15 -2 7 -33 -26 -98 -26 -52 -27 -58 -13 -73 14 -14 19 -14 38 -2 17
11 72 103 88 146 1 5 30 12 64 15 33 3 79 11 103 20 41 14 43 13 59 -7 49 -62
101 -107 125 -107 21 0 37 16 37 37 0 2 -17 21 -38 41 -21 20 -46 49 -55 63
-17 26 -17 27 10 44 35 23 81 73 99 108 11 21 20 27 32 21 21 -8 131 -29 152
-28 32 1 60 16 60 33 0 28 -21 41 -68 41 -34 0 -108 14 -129 25 -1 0 2 19 7
42 5 22 10 63 11 91 2 48 4 52 33 58 68 16 126 37 126 46 0 5 6 8 13 8 20 0
38 45 24 59 -15 15 -48 14 -72 -2 -21 -15 -76 -36 -111 -43 -18 -3 -24 8 -53
92 -18 53 -31 97 -29 98 84 49 139 106 131 135 -7 26 -38 32 -60 12 -10 -9
-38 -33 -63 -53 l-44 -36 -52 71 -52 72 26 25 c38 37 81 109 77 128 -2 9 -4
20 -4 23 -1 4 -8 10 -17 13 -17 6 -54 -19 -54 -36 0 -10 -4 -15 -48 -67 l-29
-35 -72 64 c-39 34 -71 65 -71 67 0 10 73 81 95 93 31 17 40 40 21 58 -22 22
-59 8 -118 -47 -29 -27 -57 -50 -63 -51 -11 -1 -155 109 -155 119 0 14 106 74
172 97 23 8 34 44 17 55 -32 20 -100 -2 -192 -63 l-58 -38 -32 33 c-18 18 -41
43 -51 55 l-19 22 50 48 c27 26 62 66 76 89 26 42 36 93 18 93 -5 0 -16 3 -24
6 -11 4 -26 -12 -51 -50 -38 -59 -104 -128 -117 -121 -4 3 -20 26 -35 53 -15
26 -30 49 -33 52 -3 3 -11 14 -17 25 -9 16 -7 24 9 40 31 32 73 96 94 146 20
46 17 72 -11 91 -13 9 -46 -9 -46 -25 0 -23 -53 -121 -82 -152 -27 -29 -27
-29 -45 -9 -19 21 -75 63 -107 79 -18 9 -20 21 -21 110 -1 100 -10 137 -39
148 -9 4 -23 -1 -31 -10z"/>
</g>
</svg>
